<svg t="1615117434348" class="icon" viewBox="0 0 1024 1024" version="1.1" xmlns="http://www.w3.org/2000/svg" p-id="781" width="256" height="256">
    <path d="M901 139l-31.8-31.8C813 51 721.7 51 665.5 107.2L109.7 663c-56.2 56.2-56.2 147.5 0 203.7l31.8 31.8c28.1 28.1 65 42.1 101.8 42.1s73.8-14 101.8-42.1L901 342.7c56.1-56.2 56.1-147.6 0-203.7zM287.2 840.5c-24.2 24.2-63.5 24.2-87.7 0l-31.8-31.8c-24.2-24.2-24.2-63.5 0-87.7l147.9-147.9 119.5 119.5-147.9 147.9zM843 284.7L493.1 634.6 373.6 515.1l349.9-349.9c24.2-24.2 63.5-24.2 87.7 0L843 197c24.2 24.2 24.2 63.5 0 87.7z" p-id="782"></path>
    <path d="M320.1 659.7m-38.5 0a38.5 38.5 0 1 0 77 0 38.5 38.5 0 1 0-77 0Z" p-id="783"></path>
    <path d="M143.3 349.7c-10.5 0-21-4-29-12-16-16-16-42 0-58L242 152c16-16 42-16 58 0s16 42 0 58L172.3 337.7c-8.1 8-18.5 12-29 12zM703.1 868.7c0 10.5 4 21 12 29 16 16 42 16 58 0L900.8 770c16-16 16-42 0-58s-42-16-58 0L715.1 839.7c-8 8-12 18.5-12 29zM206.7 446.6c-10.5 0-21-4-29-12-16-16-16-42 0-58l278.1-278c16-16 42-16 58 0s16 42 0 58l-278.1 278c-8 8-18.5 12-29 12z" p-id="784"></path>
    <path d="M501.1 959c-10.5 0-21-4-29-12-16-16-16-42 0-58l278.1-278c16-16 42-16 58 0s16 42 0 58L530.1 947c-8 8-18.5 12-29 12z" p-id="785"></path>
</svg>